<?xml version="1.0" encoding="utf-8"?>
<!-- Generator: Adobe Illustrator 25.2.0, SVG Export Plug-In . SVG Version: 6.00 Build 0)  -->
<svg version="1.1" id="Capa_1" xmlns="http://www.w3.org/2000/svg" xmlns:xlink="http://www.w3.org/1999/xlink" x="0px" y="0px"
	 viewBox="0 0 446.8 446.8" style="enable-background:new 0 0 446.8 446.8;" xml:space="preserve">
<style type="text/css">
	.st0{fill:#FFFFFF;}
</style>
<g>
	<path class="st0" d="M444.1,93.1c-2.7-3.7-7-5.9-11.6-5.9H109.9c-0.6,0-1.2,0-1.8,0.1L94.8,49.1c-1.4-4-4.4-7.1-8.3-8.6L19.6,14.1
		C12.2,11.2,3.9,14.9,1,22.2c-2.9,7.4,0.7,15.7,8.1,18.6l60.8,23.9l74.4,214.4c-3.3,1.1-6.1,3.7-7.3,7.2L115.4,346
		c-1.3,3.7-0.8,7.7,1.5,10.9c2.2,3.2,5.9,5.1,9.8,5.1h11c-6.8,7.6-11,17.6-11,28.7c0,23.7,19.3,43,43,43s43-19.3,43-43
		c0-11-4.2-21.1-11-28.7h93.8c-6.8,7.6-11,17.6-11,28.7c0,23.7,19.3,43,43,43c23.7,0,43-19.3,43-43c0-11-4.2-21.1-11-28.7h13.4
		c6.6,0,11.9-5.3,11.9-11.9s-5.3-11.9-11.9-11.9H143.6l13.3-37c1.7,0.7,3.6,1.2,5.5,1.2h210.3c6.2,0,11.8-4,13.6-10l59.7-186.4
		C447.6,101.6,446.8,96.8,444.1,93.1z M169.7,409.8c-10.5,0-19.1-8.6-19.1-19.1s8.6-19.1,19.1-19.1s19.1,8.6,19.1,19.1
		S180.2,409.8,169.7,409.8z M327.4,409.8c-10.5,0-19.1-8.6-19.1-19.1s8.6-19.1,19.1-19.1c10.5,0,19.1,8.6,19.1,19.1
		S337.9,409.8,327.4,409.8z M402.5,148.1h-73.2v-32.3h83.5L402.5,148.1z M381.5,213.9h-52.1v-37h64L381.5,213.9z M234.6,213.9v-37
		h66.1v37H234.6z M300.7,242.5v31.1h-66.1v-31.1H300.7z M139.1,176.8h66.8v37H152L139.1,176.8z M234.6,148.1v-32.3h66.1v32.3H234.6z
		 M205.9,115.9v32.3h-76.7L118,115.9H205.9z M161.9,242.5h44v31.1h-33.2L161.9,242.5z M329.4,273.6v-31.1h42.9l-10,31.1H329.4z"/>
</g>
</svg>
